# xmcd
#
# Track frame offsets:
#	150
#	12891
#	25358
#	38481
#	50180
#	65055
#	77812
#	90647
#	104773
#	116668
#
# Disc length: 1716 seconds
#
# Revision: 0
# Processed by: cddbd v1.5.2PL0 Copyright (c) Steve Scherf et al.
# Submitted via: audiograbber 1.82.01
#
DISCID=8506b20a
DTITLE=Tammy Wynette - Womanhood
DYEAR=1978
DGENRE=Country
TTITLE0=Womanhood
TTITLE1=That's What Friends Are For
TTITLE2=You Ought Hear The Song
TTITLE3=Whats A Couple More
TTITLE4=The One Song I Could Never Write
TTITLE5=I Like To See Jesus On The Midnight Special
TTITLE6=Mem'res
TTITLE7=Standing Tall
TTITLE8=Love Doesn't Always Come
TTITLE9=Fifty Words Or Less
EXTD=
EXTT0=
EXTT1=
EXTT2=
EXTT3=
EXTT4=
EXTT5=
EXTT6=
EXTT7=
EXTT8=
EXTT9=
PLAYORDER=
